<svg width="200" height="200" viewBox="0 0 200 200" xmlns="http://www.w3.org/2000/svg"><title>php</title><g transform="translate(0 48)" fill="none" fill-rule="evenodd"><ellipse fill="#8993BE" cx="100" cy="52.055" rx="100" ry="52.055"/><path d="M28.082 82.877l10.96-55.48h25.342c10.958.685 16.438 6.165 16.438 15.754 0 16.438-13.014 26.027-24.658 25.342H43.836l-2.74 14.384H28.082zm18.493-24.658L50 37.671h8.904c4.795 0 8.22 2.055 8.22 6.165-.686 11.643-6.165 13.698-12.33 14.383h-8.219zm31.7 10.274l10.959-55.48h13.013l-2.74 14.384h12.33c10.958.685 15.068 6.165 13.698 13.014l-4.794 28.082h-13.699l4.794-25.342c.685-3.425.685-5.48-4.11-5.48H97.454L91.29 68.493H78.275zm41.588 14.384l10.959-55.48h25.342c10.96.685 16.439 6.165 16.439 15.754 0 16.438-13.014 26.027-24.658 25.342h-12.329l-2.74 14.384h-13.013zm18.493-24.658l3.425-20.548h8.904c4.794 0 8.22 2.055 8.22 6.165-.686 11.643-6.165 13.698-12.33 14.383h-8.219z" fill="#232531"/></g></svg>